PathFileType	4	(X/Y/Z)	/Users/visionmauri/Downloads/Videos/OAW09-top_Sports2D/OAW09-top_Sports2D_m_person00.trc
DataRate	CameraRate	NumFrames	NumMarkers	Units	OrigDataRate	OrigDataStartFrame	OrigNumFrames
30.0	30.0	9	22	m	30.0	0	2065
Frame#	Time	Hip			RHip			RKnee			RAnkle			RBigToe			RSmallToe			RHeel			LHip			LKnee			LAnkle			LBigToe			LSmallToe			LHeel			Neck			Head			Nose			RShoulder			RElbow			RWrist			LShoulder			LElbow			LWrist			
		X1	Y1	Z1	X2	Y2	Z2	X3	Y3	Z3	X4	Y4	Z4	X5	Y5	Z5	X6	Y6	Z6	X7	Y7	Z7	X8	Y8	Z8	X9	Y9	Z9	X10	Y10	Z10	X11	Y11	Z11	X12	Y12	Z12	X13	Y13	Z13	X14	Y14	Z14	X15	Y15	Z15	X16	Y16	Z16	X17	Y17	Z17	X18	Y18	Z18	X19	Y19	Z19	X20	Y20	Z20	X21	Y21	Z21	X22	Y22	Z22
0	0.0	7.380740374498698	0.11282377009840626	0.0301	7.380347374436598	0.08068937386058919	0.0301	7.528467804274155	0.057403166089010416	0.129	7.63930598243691	0.041324232824412145	0.023	7.690841277277959	0.026112845452648765	0.2179	7.68118811164994	0.007886022079512726	0.1804	7.658018288370934	0.041061397353089744	-0.0119	7.390421976774907	0.1468716030453372	0.0301	7.539235779184859	0.11747237315119335	0.129	7.648143918674176	0.10061493042800418	0.023	7.705218461641657	0.08673193320909975	0.2179	7.702353554606756	0.1062989936270875	0.1804	7.665951011097325	0.09533716741575234	-0.0119	7.187813176756248	0.1452648840080206	0.0008	7.101223643141992	0.16334940295195025	0.0655	7.17022819357041	0.14970458553279867	0.1076	7.193407752773009	0.07581866234460903	-0.01275	7.3073732463099805	0.03735324750617262	0.0702	7.391375299211963	0.026625804588927732	0.1076	7.218865776342627	0.2078155337757619	-0.01275	7.338321328701401	0.2100021405819146	0.0702	7.422693457756765	0.19143592489463318	0.1076
1	0.03334948320413436	7.380609037725444	0.11280533610384373	0.0301	7.380129634449902	0.08106946878068345	0.0301	7.528206094193289	0.05705356148742893	0.129	7.6388327743902105	0.04097432937318256	0.023	7.690647030378349	0.02447061239370333	0.2179	7.681210873037572	0.007853180450258566	0.1804	7.657944450703035	0.04137764678675749	-0.0119	7.390033254009356	0.1467361248854298	0.0301	7.538462606370559	0.11747412250126785	0.129	7.648259965998571	0.10034058688402554	0.023	7.704771041378497	0.08725814794957275	0.2179	7.7017847317526815	0.10639548328606069	0.1804	7.665462992103705	0.09395739114407305	-0.0119	7.187610896922564	0.14471427738055598	0.0008	7.099419445963136	0.1625307751849318	0.0655	7.168376569881194	0.14946066593985716	0.1076	7.193379925924341	0.07548367549778615	-0.01275	7.306317210427715	0.03772469447231449	0.0702	7.390686075945268	0.026225818268173495	0.1076	7.217720033929389	0.20769953508837943	-0.01275	7.337504853759926	0.21064766885481773	0.0702	7.4222946813942485	0.19142928782695648	0.1076
2	0.06669896640826872	7.380594319972179	0.11274099857869403	0.0301	7.378901269616077	0.0816536312326246	0.0301	7.527477917109836	0.05690651777283757	0.129	7.638139381750736	0.04054674337434063	0.023	7.690526497629597	0.022832049763971598	0.2179	7.681246272288201	0.0077722005522195825	0.1804	7.657742719232188	0.042195577624548744	-0.0119	7.388631892657738	0.14658820851402607	0.0301	7.537543516475694	0.1174955878339714	0.129	7.648453751107347	0.10008440855328075	0.023	7.704421914615635	0.08803664473682898	0.2179	7.701234309373596	0.10652270704852754	0.1804	7.665110009495091	0.09266374878002302	-0.0119	7.187425276399071	0.14419100258673595	0.0008	7.097338486737375	0.1614832607533433	0.0655	7.166885205510202	0.1491790817057035	0.1076	7.193101282128089	0.07490043688668924	-0.01275	7.305128149971591	0.03815538517812251	0.0702	7.3908152085858605	0.025922581587557145	0.1076	7.216636311120293	0.20766882904817452	-0.01275	7.336911058124748	0.21123725351359995	0.0702	7.421956261810525	0.1914670983957688	0.1076
3	0.10004844961240308	7.380640747229728	0.11280677126489501	0.0301	7.377125823096863	0.08203142175101324	0.0301	7.526485190868337	0.057159252671652	0.129	7.637457242344373	0.04034970442493557	0.023	7.690432539151409	0.02186838446936639	0.2179	7.681198651103176	0.007620501355563648	0.1804	7.657503026935305	0.04341963627136465	-0.0119	7.386926028443862	0.1464308628811169	0.0301	7.536775131584083	0.1174971108244956	0.129	7.648660775816205	0.09998716245340392	0.023	7.704356271837443	0.08872669787363839	0.2179	7.700974533324081	0.10665380799608327	0.1804	7.665149463674223	0.09197714115506174	-0.0119	7.18729016756259	0.14381015857319285	0.0008	7.096136971820373	0.16035446106019077	0.0655	7.166515931491351	0.14882760217047736	0.1076	7.1927648731409795	0.07433070339780391	-0.01275	7.304442878324603	0.0383727983301094	0.0702	7.391989641754588	0.025959972464435592	0.1076	7.216006378668452	0.2076237135580825	-0.01275	7.336645244420776	0.21153528348976255	0.0702	7.421591908022788	0.19154788892386376	0.1076
4	0.13339793281653745	7.380312601067732	0.1133341599853498	0.0301	7.376208578951625	0.08183760016101593	0.0301	7.525778174265178	0.057742906939542954	0.129	7.63728305760051	0.04051205534285902	0.023	7.690169753701249	0.02181369063717902	0.2179	7.680930603594085	0.007449212107996692	0.1804	7.657519735728173	0.044315652709399876	-0.0119	7.3864322839727405	0.14628010650853412	0.0301	7.536396557579898	0.11761596932084015	0.129	7.648761837529732	0.09993348121731431	0.023	7.704537546484493	0.08887271512329946	0.2179	7.7011216889989855	0.10671841208436837	0.1804	7.665518081744135	0.09195833815963185	-0.0119	7.187096335482238	0.14358052000690166	0.0008	7.096394458712093	0.1596196902055887	0.0655	7.166920466210598	0.14845122927705823	0.1076	7.19264865508839	0.0742169226530929	-0.01275	7.3045897038602945	0.038237282694352046	0.0702	7.392949726369684	0.026374403196616956	0.1076	7.21575916073851	0.2074460115788828	-0.01275	7.336064129222859	0.21147211360712076	0.0702	7.421016610305039	0.1918189798074849	0.1076
5	0.1667474160206718	7.379358215135169	0.11421454893784429	0.0301	7.3764829417609725	0.08141956755455657	0.0301	7.525552496891756	0.05824738890308054	0.129	7.637758230954751	0.040638639397913214	0.023	7.689769997714853	0.022174729808908715	0.2179	7.680540281368	0.007358864077658298	0.1804	7.657665830345054	0.04426702375626265	-0.0119	7.387000615056373	0.14626976428229005	0.0301	7.536325742577249	0.11792724321073068	0.129	7.648848574777058	0.09976532169813664	0.023	7.704779713286127	0.08866003507247673	0.2179	7.701451655062287	0.10667029871720639	0.1804	7.665822987672481	0.09207934875051496	-0.0119	7.186685810760608	0.14342260983845737	0.0008	7.0967429430304225	0.1596558058294583	0.0655	7.166750692184803	0.14825784527968147	0.1076	7.192623902674494	0.07449231904371387	-0.01275	7.304978015515167	0.03801139214173294	0.0702	7.392328028863125	0.026904675549715845	0.1076	7.215512923487012	0.20725979887570617	-0.01275	7.334726865101335	0.21120287125799464	0.0702	7.420387723205684	0.19236890218831051	0.1076
6	0.20009689922480617	7.378439423439153	0.11470880238464676	0.0301	7.376952055343012	0.0811064494907856	0.0301	7.525605969511083	0.058346243655573886	0.129	7.638313611987972	0.04051288420468825	0.023	7.689490219305772	0.022553218391836726	0.2179	7.680294743804795	0.007359082748767828	0.1804	7.657388217484733	0.043552027406401544	-0.0119	7.387147287780448	0.14646415217771794	0.0301	7.536378186139949	0.11808908930809583	0.129	7.649124312568275	0.09973852904244884	0.023	7.705006016469053	0.08876151032887344	0.2179	7.701663756968575	0.10660179728544945	0.1804	7.665872838106196	0.09202409811007647	-0.0119	7.186154870816708	0.14321394321573977	0.0008	7.096134138454465	0.1602032514901885	0.0655	7.165773546667575	0.14835804450835957	0.1076	7.192585860103028	0.07463135763091792	-0.01275	7.305116509842176	0.03794026430779683	0.0702	7.390755206415911	0.027307170384099154	0.1076	7.215302883140787	0.20723421374062942	-0.01275	7.333552473945273	0.21102378052602483	0.0702	7.4200933350725595	0.19288385281001127	0.1076
7	0.23344638242894053	7.378239876237581	0.1144395375726127	0.0301	7.3769227516621925	0.08079137882473493	0.0301	7.525641987747852	0.0581919816108528	0.129	7.638279026402949	0.04039827826935207	0.023	7.689332315056496	0.02280222645352747	0.2179	7.680211137976226	0.0073695490107018626	0.1804	7.656745565731374	0.043031519706071136	-0.0119	7.386573493686762	0.14669442651595566	0.0301	7.536335821359698	0.11808006175310615	0.129	7.6494983531938	0.10002981375704069	0.023	7.705119970943778	0.08930918911966433	0.2179	7.701601868352146	0.10663571730632697	0.1804	7.665800314280387	0.09202042917986597	-0.0119	7.185750161531648	0.1429996078129637	0.0008	7.095343461943677	0.16070936420744544	0.0655	7.164753634799101	0.14865646151290499	0.1076	7.192747779241113	0.07441404872964189	-0.01275	7.305134923991835	0.038011189841663184	0.0702	7.389915207210353	0.027449624714834895	0.1076	7.215284251297748	0.2073361909611555	-0.01275	7.333494569665627	0.2112453511715301	0.0702	7.420231299608377	0.19308575817126294	0.1076
8	0.2667958656330749	7.378170349263953	0.1141622844940673	0.0301	7.376598784032526	0.08074851296371818	0.0301	7.525526401562561	0.058099623735098783	0.129	7.637778342488295	0.04046660814213601	0.023	7.689164505481085	0.02271523456233395	0.2179	7.680117773227785	0.007312497540711126	0.1804	7.656513583235418	0.043055823562634904	-0.0119	7.386227885479311	0.146946600071189	0.0301	7.536093353459756	0.11850958462893779	0.129	7.649651127394335	0.10029513973333706	0.023	7.7050207501291945	0.089586803168316	0.2179	7.70138809497034	0.10664107434927225	0.1804	7.665745787692256	0.09233975361685631	-0.0119	7.185529250298268	0.1432088883583412	0.0008	7.095082054422534	0.16092379611887683	0.0655	7.163771549084234	0.14901150736686244	0.1076	7.193104626091533	0.07415846654649035	-0.01275	7.305056642432785	0.03815411201295588	0.0702	7.390103186238388	0.02726768204023211	0.1076	7.21536636257119	0.20751458847501245	-0.01275	7.334117419870377	0.21177030756314655	0.0702	7.420582804757931	0.19310292169034954	0.1076
